<mxfile host="app.diagrams.net" agent="Mozilla/5.0 (Macintosh; Intel Mac OS X 10_15_7) AppleWebKit/537.36 (KHTML, like Gecko) Chrome/129.0.0.0 Safari/537.36" version="24.7.12">
  <diagram name="Page-1" id="5dWdbuf4hbfbDsVz6yMR">
    <mxGraphModel dx="1434" dy="819" grid="0" gridSize="10" guides="1" tooltips="1" connect="1" arrows="1" fold="1" page="1" pageScale="1" pageWidth="826" pageHeight="1169" background="#D5E8D4" math="0" shadow="1">
      <root>
        <mxCell id="0" />
        <mxCell id="1" parent="0" />
        <mxCell id="ceSgnmIpMZuki_RkLY0J-1" value="" style="rounded=1;whiteSpace=wrap;html=1;hachureGap=4;fontFamily=Architects Daughter;fontSource=https%3A%2F%2Ffonts.googleapis.com%2Fcss%3Ffamily%3DArchitects%2BDaughter;labelBackgroundColor=none;fillColor=#A8DADC;strokeColor=#457B9D;fontColor=#1D3557;textShadow=1;" vertex="1" parent="1">
          <mxGeometry x="308" y="193" width="217" height="33" as="geometry" />
        </mxCell>
        <mxCell id="ceSgnmIpMZuki_RkLY0J-2" value="" style="rounded=1;whiteSpace=wrap;html=1;hachureGap=4;fontFamily=Architects Daughter;fontSource=https%3A%2F%2Ffonts.googleapis.com%2Fcss%3Ffamily%3DArchitects%2BDaughter;labelBackgroundColor=none;fillColor=#A8DADC;strokeColor=#457B9D;fontColor=#1D3557;textShadow=1;" vertex="1" parent="1">
          <mxGeometry x="309" y="487.5" width="217" height="33" as="geometry" />
        </mxCell>
        <mxCell id="ceSgnmIpMZuki_RkLY0J-3" value="" style="rounded=1;whiteSpace=wrap;html=1;hachureGap=4;fontFamily=Architects Daughter;fontSource=https%3A%2F%2Ffonts.googleapis.com%2Fcss%3Ffamily%3DArchitects%2BDaughter;labelBackgroundColor=none;fillColor=#A8DADC;strokeColor=#457B9D;fontColor=#1D3557;textShadow=1;" vertex="1" parent="1">
          <mxGeometry x="308" y="448" width="217" height="33" as="geometry" />
        </mxCell>
        <mxCell id="ceSgnmIpMZuki_RkLY0J-4" value="" style="rounded=1;whiteSpace=wrap;html=1;hachureGap=4;fontFamily=Architects Daughter;fontSource=https%3A%2F%2Ffonts.googleapis.com%2Fcss%3Ffamily%3DArchitects%2BDaughter;labelBackgroundColor=none;fillColor=#A8DADC;strokeColor=#457B9D;fontColor=#1D3557;textShadow=1;" vertex="1" parent="1">
          <mxGeometry x="308" y="405.5" width="217" height="33" as="geometry" />
        </mxCell>
        <mxCell id="ceSgnmIpMZuki_RkLY0J-5" value="" style="rounded=1;whiteSpace=wrap;html=1;hachureGap=4;fontFamily=Architects Daughter;fontSource=https%3A%2F%2Ffonts.googleapis.com%2Fcss%3Ffamily%3DArchitects%2BDaughter;labelBackgroundColor=none;fillColor=#A8DADC;strokeColor=#457B9D;fontColor=#1D3557;textShadow=1;" vertex="1" parent="1">
          <mxGeometry x="307" y="236.5" width="217" height="33" as="geometry" />
        </mxCell>
        <mxCell id="ceSgnmIpMZuki_RkLY0J-6" value="" style="rounded=1;whiteSpace=wrap;html=1;hachureGap=4;fontFamily=Architects Daughter;fontSource=https%3A%2F%2Ffonts.googleapis.com%2Fcss%3Ffamily%3DArchitects%2BDaughter;labelBackgroundColor=none;fillColor=#A8DADC;strokeColor=#457B9D;fontColor=#1D3557;textShadow=1;" vertex="1" parent="1">
          <mxGeometry x="308" y="279" width="217" height="33" as="geometry" />
        </mxCell>
        <mxCell id="ceSgnmIpMZuki_RkLY0J-7" value="" style="rounded=1;whiteSpace=wrap;html=1;hachureGap=4;fontFamily=Architects Daughter;fontSource=https%3A%2F%2Ffonts.googleapis.com%2Fcss%3Ffamily%3DArchitects%2BDaughter;labelBackgroundColor=none;fillColor=#A8DADC;strokeColor=#457B9D;fontColor=#1D3557;textShadow=1;" vertex="1" parent="1">
          <mxGeometry x="308" y="322" width="217" height="33" as="geometry" />
        </mxCell>
        <mxCell id="ceSgnmIpMZuki_RkLY0J-8" value="" style="rounded=1;whiteSpace=wrap;html=1;hachureGap=4;fontFamily=Architects Daughter;fontSource=https%3A%2F%2Ffonts.googleapis.com%2Fcss%3Ffamily%3DArchitects%2BDaughter;labelBackgroundColor=none;fillColor=#A8DADC;strokeColor=#457B9D;fontColor=#1D3557;textShadow=1;" vertex="1" parent="1">
          <mxGeometry x="308" y="363.5" width="217" height="33" as="geometry" />
        </mxCell>
        <mxCell id="ceSgnmIpMZuki_RkLY0J-10" value="DLL Already In Memory" style="text;html=1;align=center;verticalAlign=middle;whiteSpace=wrap;rounded=0;fontColor=#1D3557;fontFamily=Garamond;" vertex="1" parent="1">
          <mxGeometry x="342.5" y="194.5" width="168" height="30" as="geometry" />
        </mxCell>
        <mxCell id="ceSgnmIpMZuki_RkLY0J-14" value="Known DLLs" style="text;html=1;align=center;verticalAlign=middle;whiteSpace=wrap;rounded=0;fontColor=#1D3557;fontFamily=Garamond;" vertex="1" parent="1">
          <mxGeometry x="355.5" y="239.5" width="152" height="30" as="geometry" />
        </mxCell>
        <mxCell id="ceSgnmIpMZuki_RkLY0J-15" value="Application Directory" style="text;html=1;align=center;verticalAlign=middle;whiteSpace=wrap;rounded=0;fontColor=#1D3557;fontFamily=Garamond;" vertex="1" parent="1">
          <mxGeometry x="355" y="280.5" width="156" height="30" as="geometry" />
        </mxCell>
        <mxCell id="ceSgnmIpMZuki_RkLY0J-16" value="C:\Windows\System32|SysWow64" style="text;html=1;align=center;verticalAlign=middle;whiteSpace=wrap;rounded=0;fontColor=#1D3557;fontFamily=Garamond;" vertex="1" parent="1">
          <mxGeometry x="326" y="323.5" width="173.5" height="30" as="geometry" />
        </mxCell>
        <mxCell id="ceSgnmIpMZuki_RkLY0J-17" value="C:\Windows\system" style="text;html=1;align=center;verticalAlign=middle;whiteSpace=wrap;rounded=0;fontColor=#1D3557;fontFamily=Garamond;" vertex="1" parent="1">
          <mxGeometry x="361.75" y="365" width="109.5" height="30" as="geometry" />
        </mxCell>
        <mxCell id="ceSgnmIpMZuki_RkLY0J-18" value="C:\Windows" style="text;html=1;align=center;verticalAlign=middle;whiteSpace=wrap;rounded=0;fontColor=#1D3557;fontFamily=Garamond;" vertex="1" parent="1">
          <mxGeometry x="359" y="407" width="131" height="30" as="geometry" />
        </mxCell>
        <mxCell id="ceSgnmIpMZuki_RkLY0J-19" value="Current Directory" style="text;html=1;align=center;verticalAlign=middle;whiteSpace=wrap;rounded=0;fontColor=#1D3557;fontFamily=Garamond;" vertex="1" parent="1">
          <mxGeometry x="366" y="448" width="131" height="30" as="geometry" />
        </mxCell>
        <mxCell id="ceSgnmIpMZuki_RkLY0J-20" value="%PATH%" style="text;html=1;align=center;verticalAlign=middle;whiteSpace=wrap;rounded=0;fontColor=#1D3557;fontFamily=Garamond;" vertex="1" parent="1">
          <mxGeometry x="361" y="489" width="131" height="30" as="geometry" />
        </mxCell>
        <mxCell id="ceSgnmIpMZuki_RkLY0J-21" value="" style="rounded=1;whiteSpace=wrap;html=1;strokeColor=#FF6666;fontColor=#1D3557;fillColor=none;dashed=1;strokeWidth=3;fontFamily=Verdana;textShadow=1;labelBackgroundColor=default;labelBorderColor=default;movable=1;resizable=1;rotatable=1;deletable=1;editable=1;locked=0;connectable=1;glass=1;shadow=1;" vertex="1" parent="1">
          <mxGeometry x="294.75" y="172" width="242.25" height="366" as="geometry" />
        </mxCell>
        <mxCell id="ceSgnmIpMZuki_RkLY0J-23" value="" style="shape=flexArrow;endArrow=classic;html=1;rounded=0;strokeColor=#FF3333;fontColor=#1D3557;fillColor=none;width=6;endSize=6.67;endWidth=6;dashed=1;strokeWidth=1;" edge="1" parent="1">
          <mxGeometry width="50" height="50" relative="1" as="geometry">
            <mxPoint x="573" y="193" as="sourcePoint" />
            <mxPoint x="573" y="545" as="targetPoint" />
          </mxGeometry>
        </mxCell>
        <mxCell id="ceSgnmIpMZuki_RkLY0J-24" value="&lt;font face=&quot;Garamond&quot;&gt;Dll Load Order&lt;/font&gt;" style="text;html=1;align=center;verticalAlign=middle;whiteSpace=wrap;rounded=1;fontColor=#1D3557;glass=1;shadow=1;" vertex="1" parent="1">
          <mxGeometry x="584" y="330" width="103" height="30" as="geometry" />
        </mxCell>
      </root>
    </mxGraphModel>
  </diagram>
</mxfile>
